[Header]
FileType HTR
DataType HTRS
FileVersion 1
NumSegments 73
NumFrames 2
DataFrameRate 24
EulerRotationOrder ZYX
CalibrationUnits mm
RotationUnits Degrees
GlobalAxisofGravity Y
BoneLengthAxis Y
ScaleFactor 1.0
[SegmentNames&Hierarchy]
Hips	GLOBAL
Spine	Hips
Spine1	Spine
Spine2	Spine1
Neck	Spine2
Head	Neck
HeadEnd	Head
RightEye	Head
LeftEye	Head
RightShoulder	Spine2
RightArm	RightShoulder
RightForeArm	RightArm
RightHand	RightForeArm
RightFingerBase	RightHand
RightHandThumb1	RightFingerBase
RightHandThumb2	RightHandThumb1
RightHandThumb3	RightHandThumb2
RightHandThumb4	RightHandThumb3
RightHandIndex0	RightFingerBase
RightHandIndex1	RightHandIndex0
RightHandIndex2	RightHandIndex1
RightHandIndex3	RightHandIndex2
RightHandIndex4	RightHandIndex3
RightHandMiddle1	RightFingerBase
RightHandMiddle2	RightHandMiddle1
RightHandMiddle3	RightHandMiddle2
RightHandMiddle4	RightHandMiddle3
RightHandRing1	RightFingerBase
RightHandRing2	RightHandRing1
RightHandRing3	RightHandRing2
RightHandRing4	RightHandRing3
RightHandPinky0	RightFingerBase
RightHandPinky1	RightHandPinky0
RightHandPinky2	RightHandPinky1
RightHandPinky3	RightHandPinky2
RightHandPinky4	RightHandPinky3
LeftShoulder	Spine2
LeftArm	LeftShoulder
LeftForeArm	LeftArm
LeftHand	LeftForeArm
LeftFingerBase	LeftHand
LeftHandThumb1	LeftFingerBase
LeftHandThumb2	LeftHandThumb1
LeftHandThumb3	LeftHandThumb2
LeftHandThumb4	LeftHandThumb3
LeftHandIndex0	LeftFingerBase
LeftHandIndex1	LeftHandIndex0
LeftHandIndex2	LeftHandIndex1
LeftHandIndex3	LeftHandIndex2
LeftHandIndex4	LeftHandIndex3
LeftHandMiddle1	LeftFingerBase
LeftHandMiddle2	LeftHandMiddle1
LeftHandMiddle3	LeftHandMiddle2
LeftHandMiddle4	LeftHandMiddle3
LeftHandRing1	LeftFingerBase
LeftHandRing2	LeftHandRing1
LeftHandRing3	LeftHandRing2
LeftHandRing4	LeftHandRing3
LeftHandPinky0	LeftFingerBase
LeftHandPinky1	LeftHandPinky0
LeftHandPinky2	LeftHandPinky1
LeftHandPinky3	LeftHandPinky2
LeftHandPinky4	LeftHandPinky3
RightUpLeg	Hips
RightLeg	RightUpLeg
RightFoot	RightLeg
RightToeBase	RightFoot
RightToeEnd	RightToeBase
LeftUpLeg	Hips
LeftLeg	LeftUpLeg
LeftFoot	LeftLeg
LeftToeBase	LeftFoot
LeftToeEnd	LeftToeBase
[BasePosition]
Hips	0	0	0	-90	0	0	1
Spine	0	0	0	-90	-90	0	1
Spine1	0	0	0	0	-6.913477599	0	1
Spine2	0	0	0	0	-2.963399918	0	1
Neck	0	0	0	0	28.72983957	0	1
Head	0	0	0	0	-18.85296205	0	1
HeadEnd	0	0	0	180	7.062250077e-031	90	1
RightEye	0	0	0	-0	90	0	1
LeftEye	0	0	0	-0	90	0	1
RightShoulder	0	0	0	-9.832471	-0.9401690171	-95.40830344	1
RightArm	0	0	0	0	-1.125996519	5.48917453	1
RightForeArm	0	0	0	0	2.436994823	0	1
RightHand	0	0	0	2.511548878	9.613686614	14.71609442	1
RightFingerBase	0	0	0	0	0	0	1
RightHandThumb1	0	0	0	-116.2812282	42.48690065	-50.67663625	1
RightHandThumb2	0	0	0	-84.21951428	-17.70222334	7.38661549	1
RightHandThumb3	0	0	0	-89.5340698	-1.061838382	-6.180390122	1
RightHandThumb4	0	0	0	-180	40.09965989	-156.3109829	1
RightHandIndex0	0	0	0	4.427842418	26.53425936	-4.671175846	1
RightHandIndex1	0	0	0	-1.006290781	-34.5965515	-7.017277489	1
RightHandIndex2	0	0	0	-0.1211372881	1.365391446	-6.528981104	1
RightHandIndex3	0	0	0	0.718493931	-5.844290023	-1.952116853	1
RightHandIndex4	0	0	0	-180	-1.007680903	-173.015521	1
RightHandMiddle1	0	0	0	1.212759453	-9.423008964	-21.87251019	1
RightHandMiddle2	0	0	0	-0.06391764782	0.3175210117	-4.114015207	1
RightHandMiddle3	0	0	0	-0.02837742177	0.1833479743	2.583455052	1
RightHandMiddle4	0	0	0	-180	2.253742799	-171.2019661	1
RightHandRing1	0	0	0	1.024036159	-9.14512951	-20.92166287	1
RightHandRing2	0	0	0	-0.2639380485	1.120712185	-6.918198661	1
RightHandRing3	0	0	0	0.8624562677	-3.223623788	-1.736364634	1
RightHandRing4	0	0	0	-180	-0.142962497	-165.037383	1
RightHandPinky0	0	0	0	-3.644848491	-31.10321667	-7.475102696	1
RightHandPinky1	0	0	0	-2.230097681	22.3754039	-11.85603488	1
RightHandPinky2	0	0	0	0.3468517139	-1.93809926	-4.748723167	1
RightHandPinky3	0	0	0	0.3843380283	-3.03717749	2.92708613	1
RightHandPinky4	0	0	0	-180	-2.600102366	-172.7946087	1
LeftShoulder	0	0	0	170.167529	0.9401690171	-84.59169656	1
LeftArm	0	0	0	-6.213220642e-018	-1.125996519	5.48917453	1
LeftForeArm	0	0	0	3.570089123e-006	2.436994823	0	1
LeftHand	0	0	0	2.511545379	9.613687521	14.71609377	1
LeftFingerBase	0	0	0	1.707547293e-006	-0	0	1
LeftHandThumb1	0	0	0	-116.2812297	42.48689933	-50.67663724	1
LeftHandThumb2	0	0	0	8.037892136	-7.035043832	-17.84100306	1
LeftHandThumb3	0	0	0	0.3509520673	6.17932467	-1.068044571	1
LeftHandThumb4	0	0	0	74.2196411	17.89814003	137.3999222	1
LeftHandIndex0	0	0	0	4.427840516	26.53425923	-4.671176696	1
LeftHandIndex1	0	0	0	-1.006290781	-34.5965515	-7.017277489	1
LeftHandIndex2	0	0	0	-0.1211372881	1.365391446	-6.528981104	1
LeftHandIndex3	0	0	0	0.718493931	-5.844290023	-1.952116853	1
LeftHandIndex4	0	0	0	-180	-1.007680903	-173.015521	1
LeftHandMiddle1	0	0	0	1.212757847	-9.4230096	-21.87250993	1
LeftHandMiddle2	0	0	0	-0.06391764786	0.3175210117	-4.114015207	1
LeftHandMiddle3	0	0	0	-0.02837742181	0.1833479743	2.583455052	1
LeftHandMiddle4	0	0	0	-180	2.253742799	-171.2019661	1
LeftHandRing1	0	0	0	1.024034543	-9.14513012	-20.92166261	1
LeftHandRing2	0	0	0	-0.2639380485	1.120712185	-6.918198661	1
LeftHandRing3	0	0	0	0.8624562677	-3.223623788	-1.736364634	1
LeftHandRing4	0	0	0	-180	-0.142962497	-165.037383	1
LeftHandPinky0	0	0	0	-3.644850468	-31.10321689	-7.475101675	1
LeftHandPinky1	0	0	0	-2.230097681	22.3754039	-11.85603488	1
LeftHandPinky2	0	0	0	0.3468517139	-1.93809926	-4.748723167	1
LeftHandPinky3	0	0	0	0.3843380283	-3.03717749	2.92708613	1
LeftHandPinky4	0	0	0	-180	-2.600102366	-172.7946087	1
RightUpLeg	0	0	0	-180	88.31591738	-90	1
RightLeg	0	0	0	0	-3.307220847	0	1
RightFoot	0	0	0	-94.4147791	68.81735023	-4.072373061	1
RightToeBase	0	0	0	0	-0	7.131076561	1
RightToeEnd	0	0	0	0	88.40548641	15.61803979	1
LeftUpLeg	0	0	0	1.082242636e-013	-88.31591738	90	1
LeftLeg	0	0	0	0	-3.307220847	0	1
LeftFoot	0	0	0	-94.4147791	68.81735023	-4.072373061	1
LeftToeBase	0	0	0	0	-0	7.131076561	1
LeftToeEnd	0	0	0	0	88.40548641	15.61803979	1
[Hips]
1	-65.81047821	1007.95929	-759.4778442	-4.039652824	-5.079577446	-5.800951958	1.0
2	-72.14616394	1023.318359	-755.6086426	-1.915674686	-3.024655342	-4.545082092	1.0
[Spine]
1	0	1.036292464e-014	46.67046356	-0.7506567836	5.794139385	4.078727245	1.0
2	0	1.036292464e-014	46.67046356	-1.004771471	5.745540142	2.814251661	1.0
[Spine1]
1	93.34092712	-2.072584929e-014	1.776356839e-014	-0.112220183	6.075466156	2.737944603	1.0
2	93.34092712	-2.072584929e-014	1.776356839e-014	-0.4732066989	4.43280077	1.866178393	1.0
[Spine2]
1	110.2689362	-2.430659467e-014	8.881784197e-015	0.6979602575	4.383841515	-0.3708652854	1.0
2	110.2689362	-2.430659467e-014	8.881784197e-015	0.6353837848	3.498390436	-0.9109054208	1.0
[Neck]
1	272.1245117	-6.393256286e-014	-102.6588287	0.9230914116	-3.820728302	0.3194743097	1.0
2	272.1245117	-6.393256286e-014	-102.6588287	1.025312901	-3.578441381	-0.6827243567	1.0
[Head]
1	109.2242432	-2.491077819e-014	-7.993605777e-014	4.751941204	-10.26835728	-4.238322735	1.0
2	109.2242432	-2.491077819e-014	-7.993605777e-014	4.878648758	-8.986755371	-3.603259802	1.0
[HeadEnd]
1	176.9316254	-3.928671285e-014	4.91083953e-014	0	0	0	1.0
2	176.9316254	-3.928671285e-014	4.91083953e-014	0	0	0	1.0
[RightEye]
1	56.50638199	-33.11345673	-70.58847046	-3.114994834e-014	-1.272221887e-014	8.474700379e-030	1.0
2	56.50638199	-33.11345673	-70.58847046	-3.114994834e-014	-1.272221887e-014	8.474700379e-030	1.0
[LeftEye]
1	56.50532532	33.1135025	-70.58802795	7.016709127e-015	-1.272221887e-014	0	1.0
2	56.50532532	33.1135025	-70.58802795	7.016709127e-015	-1.272221887e-014	0	1.0
[RightShoulder]
1	238.428894	-15.55305099	-71.2572937	-4.403927326	7.31480217	2.528660774	1.0
2	238.428894	-15.55305099	-71.2572937	-4.760385036	6.341659546	2.333533287	1.0
[RightArm]
1	141.8920135	1.643130076e-013	-1.723798276e-014	-22.32627487	-10.38277721	-67.32565308	1.0
2	141.8920135	1.643130076e-013	-1.723798276e-014	-17.19485664	-11.99002075	-70.94681549	1.0
[RightForeArm]
1	295.651123	2.842170943e-013	8.604228441e-014	-0.0001355397981	83.73423767	-0.000104361483	1.0
2	295.651123	2.842170943e-013	8.604228441e-014	-0.0001677711552	86.66804504	-0.0002173682296	1.0
[RightHand]
1	253.9360657	-2.842170943e-013	2.953193246e-013	-11.23854733	11.99133492	0.2873699963	1.0
2	253.9360657	-2.842170943e-013	2.953193246e-013	-10.73593998	11.44953728	0.3943936527	1.0
[RightFingerBase]
1	21.8163414	2.514308206e-013	1.609823386e-014	-7.346189932e-007	5.96354023e-016	0	1.0
2	21.8163414	2.514308206e-013	1.609823386e-014	3.169364778e-015	0	1.31645474e-018	1.0
[RightHandThumb1]
1	0.315223217	-25.77882576	-34.99160004	89.99998474	4.078272468e-006	5.768888514e-006	1.0
2	0.315223217	-25.77882576	-34.99160004	90	-6.952351214e-006	8.954310942e-006	1.0
[RightHandThumb2]
1	22.53543472	1.132427485e-013	7.771561172e-015	89.99998474	6.676946668e-006	5.521542334e-007	1.0
2	22.53543472	1.132427485e-013	7.771561172e-015	90	9.42783663e-006	1.721489571e-005	1.0
[RightHandThumb3]
1	35.04462051	1.759703494e-013	-9.103828802e-014	90	2.524084266e-006	3.81745258e-006	1.0
2	35.04462051	1.759703494e-013	-9.103828802e-014	89.99999237	2.257119149e-006	2.251176966e-006	1.0
[RightHandThumb4]
1	32.93183899	9.547918012e-014	-7.771561172e-014	-3.053838736e-005	-2.335748104e-005	-6.632721124e-006	1.0
2	32.93183899	9.547918012e-014	-7.771561172e-014	-1.207927653e-005	-1.835179501e-005	-1.089583634e-006	1.0
[RightHandIndex0]
1	7.951202393	-0.6496808529	-3.983492613	-1.550520407e-014	-3.180554719e-015	1.808940503e-014	1.0
2	7.951202393	-0.6496808529	-3.983492613	-1.550520407e-014	-3.180554719e-015	1.808940503e-014	1.0
[RightHandIndex1]
1	71.33556366	1.237898672e-013	-7.105427358e-014	-1.186584996e-005	-6.479996046e-006	1.585137761e-005	1.0
2	71.33556366	1.237898672e-013	-7.105427358e-014	1.57646009e-005	8.202153367e-006	-8.261810649e-007	1.0
[RightHandIndex2]
1	42.80506134	-1.202260947e-013	-1.720845688e-014	7.599940545e-006	6.642445442e-006	-2.165007027e-005	1.0
2	42.80506134	-1.202260947e-013	-1.720845688e-014	1.40831753e-005	4.719622666e-006	-2.604013753e-005	1.0
[RightHandIndex3]
1	24.93278503	7.893859177e-013	2.220446049e-014	2.405718533e-006	7.88601028e-007	1.418767079e-005	1.0
2	24.93278503	7.893859177e-013	2.220446049e-014	9.311440408e-006	-1.174659428e-005	2.070353912e-005	1.0
[RightHandIndex4]
1	28.05339432	3.783919792e-014	3.545774785e-014	-8.265462384e-006	-8.935980986e-006	-6.15639965e-006	1.0
2	28.05339432	3.783919792e-014	3.545774785e-014	2.118321027e-005	-2.177464376e-005	-1.712598169e-005	1.0
[RightHandMiddle1]
1	67.74620819	0.8650525808	-12.21569538	-5.439109373e-006	-2.092751856e-006	-4.884354439e-006	1.0
2	67.74620819	0.8650525808	-12.21569538	5.341123142e-006	9.389536899e-006	-1.490047453e-005	1.0
[RightHandMiddle2]
1	49.20084381	-2.47555882e-014	1.387778781e-014	9.788626812e-006	6.546964869e-006	-2.034096724e-006	1.0
2	49.20084381	-2.47555882e-014	1.387778781e-014	8.507458006e-006	2.734539521e-005	-1.975012856e-005	1.0
[RightHandMiddle3]
1	31.13799858	-3.621538833e-013	4.30211422e-015	-8.198197975e-006	-1.052681091e-005	1.80544921e-005	1.0
2	31.13799858	-3.621538833e-013	4.30211422e-015	-1.72647367e-006	-1.924761273e-005	8.120365237e-006	1.0
[RightHandMiddle4]
1	26.62631035	2.316430468e-013	1.387778781e-015	-2.613075594e-006	1.377240369e-005	1.014460167e-006	1.0
2	26.62631035	2.316430468e-013	1.387778781e-015	-1.504416559e-005	4.568587428e-006	-5.115557542e-006	1.0
[RightHandRing1]
1	63.15184784	-0.8650525808	12.21569538	1.982065442e-006	-5.360399882e-006	2.578602107e-006	1.0
2	63.15184784	-0.8650525808	12.21569538	-1.003920261e-005	2.382797356e-005	-1.483316282e-005	1.0
[RightHandRing2]
1	47.11792755	1.379647264e-013	5.606626274e-014	-1.301727934e-006	8.423572581e-006	-2.438402407e-005	1.0
2	47.11792755	1.379647264e-013	5.606626274e-014	2.076314559e-005	-2.312720972e-005	1.918465932e-005	1.0
[RightHandRing3]
1	28.71803093	-6.597153379e-014	-6.661338148e-015	-6.254272193e-007	5.619202511e-006	1.565832645e-005	1.0
2	28.71803093	-6.597153379e-014	-6.661338148e-015	6.143307019e-006	1.745542704e-006	6.624771231e-006	1.0
[RightHandRing4]
1	24.54642296	5.63775155e-013	2.402592014e-015	7.405637348e-007	-2.04455755e-005	-1.372123188e-005	1.0
2	24.54642296	5.63775155e-013	2.402592014e-015	1.180251729e-006	7.856549018e-006	6.999172456e-006	1.0
[RightHandPinky0]
1	6.176146507	-0.8103749156	3.758100986	1.192708046e-015	-0	2.584200622e-014	1.0
2	6.176146507	-0.8103749156	3.758100986	1.192708046e-015	-0	2.584200622e-014	1.0
[RightHandPinky1]
1	58.19955444	2.842170943e-013	5.329070518e-014	-2.15932032e-005	2.758320989e-006	2.299007429e-005	1.0
2	58.19955444	2.842170943e-013	5.329070518e-014	-1.50666765e-005	3.505396307e-005	1.298154075e-006	1.0
[RightHandPinky2]
1	39.05205536	-9.498261552e-014	-1.859623566e-014	-3.242860657e-006	1.573509871e-005	-1.173835335e-005	1.0
2	39.05205536	-9.498261552e-014	-1.859623566e-014	2.705860243e-005	6.928787116e-006	-1.792367402e-005	1.0
[RightHandPinky3]
1	20.92533112	-9.361543658e-014	5.342948306e-015	6.577978638e-006	-4.294193332e-006	1.16435067e-005	1.0
2	20.92533112	-9.361543658e-014	5.342948306e-015	-9.76406136e-006	-2.400709036e-006	4.387780791e-006	1.0
[RightHandPinky4]
1	21.05566788	-2.827382425e-013	1.401656569e-014	-9.164290532e-006	-2.606610906e-005	-5.785696885e-006	1.0
2	21.05566788	-2.827382425e-013	1.401656569e-014	-1.015690941e-005	-3.637656846e-005	-1.887968028e-005	1.0
[LeftShoulder]
1	238.4311829	15.55310059	-71.25769043	-0.06295467168	5.561252594	-0.4827851951	1.0
2	238.4311829	15.55310059	-71.25769043	-0.4435086846	4.223134995	-0.6044588089	1.0
[LeftArm]
1	-141.8922424	0.006949160714	-5.426215033e-014	-22.78587723	8.960261345	-57.01109314	1.0
2	-141.8922424	0.006949160714	-5.426215033e-014	-21.86946297	4.684197426	-61.39225006	1.0
[LeftForeArm]
1	-295.6510925	0	-4.279579116e-006	1.525878906e-005	102.6895142	-2.288818359e-005	1.0
2	-295.6510925	0	-4.279579116e-006	1.53598412e-005	102.5856934	1.010515831e-007	1.0
[LeftHand]
1	-253.9364624	2.786799769e-007	-5.565790161e-006	-4.443737984	9.574430466	-3.400625706	1.0
2	-253.9364624	2.786799769e-007	-5.565790161e-006	-2.437702656	8.845888138	-3.171564102	1.0
[LeftFingerBase]
1	-21.81822968	-0.005536882672	-9.225585382e-005	3.343389835e-006	4.823798008e-006	1.400565452e-005	1.0
2	-21.81822968	-0.005536882672	-9.225585382e-005	-3.871916761e-006	1.555602284e-005	1.227962366e-005	1.0
[LeftHandThumb1]
1	-0.3139604926	25.78034973	34.99176788	-7.892946087e-006	7.983419891e-006	-5.528037946e-006	1.0
2	-0.3139604926	25.78034973	34.99176788	-4.560163688e-006	-3.283422302e-006	-1.211750441e-005	1.0
[LeftHandThumb2]
1	-22.53630829	0.0002837101929	0.001485430403	-2.518813289e-006	5.328161023e-006	-6.194848993e-006	1.0
2	-22.53630829	0.0002837101929	0.001485430403	-1.449407409e-005	1.135907405e-005	5.987173154e-006	1.0
[LeftHandThumb3]
1	-35.04284286	-0.0001289721695	-0.005385319702	-1.44539008e-005	4.704004368e-006	7.201772405e-006	1.0
2	-35.04284286	-0.0001289721695	-0.005385319702	1.408510434e-005	-1.408613389e-005	7.645767255e-006	1.0
[LeftHandThumb4]
1	-32.93151093	9.614243027e-005	-0.001056680572	-2.178814975e-005	5.070722864e-008	2.712900368e-006	1.0
2	-32.93151093	9.614243027e-005	-0.001056680572	-6.797725746e-006	-1.775893566e-006	-2.416692041e-006	1.0
[LeftHandIndex0]
1	-7.949762821	0.6518924832	3.983615637	0	0	0	1.0
2	-7.949762821	0.6518924832	3.983615637	0	0	0	1.0
[LeftHandIndex1]
1	-71.33573914	4.009194527e-005	-0.0001216670644	-8.653160876e-006	6.835418844e-006	-2.504370786e-005	1.0
2	-71.33573914	4.009194527e-005	-0.0001216670644	4.452790563e-006	1.204789169e-005	-2.204353041e-005	1.0
[LeftHandIndex2]
1	-42.80513763	-0.0004867216921	2.274473809e-005	1.946921839e-005	2.924303772e-006	1.865112836e-006	1.0
2	-42.80513763	-0.0004867216921	2.274473809e-005	1.699850509e-005	-8.052601515e-006	-4.15850127e-006	1.0
[LeftHandIndex3]
1	-24.93229675	-0.002930393675	7.19765012e-006	-3.296956857e-005	6.51820983e-007	2.379647185e-006	1.0
2	-24.93229675	-0.002930393675	7.19765012e-006	-2.216674511e-005	1.029537543e-005	1.220450395e-005	1.0
[LeftHandIndex4]
1	-28.05332565	-0.001307393424	-1.092151649e-007	-1.760713894e-005	3.187768471e-006	9.223231245e-006	1.0
2	-28.05332565	-0.001307393424	-1.092151649e-007	1.049623188e-005	-8.957464161e-006	2.589044925e-006	1.0
[LeftHandMiddle1]
1	-67.74446869	-0.8599894643	12.21582031	2.287555981e-005	-3.491439884e-007	-1.917820555e-005	1.0
2	-67.74446869	-0.8599894643	12.21582031	1.498221354e-005	5.037406936e-006	-7.378883311e-006	1.0
[LeftHandMiddle2]
1	-49.20037079	-0.004143495578	-1.600813448e-005	-1.590448846e-006	2.084204061e-005	-4.317235835e-006	1.0
2	-49.20037079	-0.004143495578	-1.600813448e-005	1.496859568e-005	1.289244392e-005	-3.459153504e-006	1.0
[LeftHandMiddle3]
1	-31.13726425	-0.004764806479	-5.678773596e-005	-1.187563066e-005	-7.975327208e-006	2.134014494e-006	1.0
2	-31.13726425	-0.004764806479	-5.678773596e-005	-8.05480795e-006	-1.091717331e-005	7.739581633e-006	1.0
[LeftHandMiddle4]
1	-26.62679863	0.007467714138	6.429820496e-005	2.004382804e-005	-6.304790531e-006	-1.229664394e-005	1.0
2	-26.62679863	0.007467714138	6.429820496e-005	1.838169396e-006	4.81897905e-006	-6.105277407e-006	1.0
[LeftHandRing1]
1	-63.1511116	0.8645144105	-12.21551704	2.431143002e-007	1.334886747e-005	-2.857419759e-006	1.0
2	-63.1511116	0.8645144105	-12.21551704	2.561199653e-005	1.383737981e-005	-9.250325093e-006	1.0
[LeftHandRing2]
1	-47.11856842	0.0009522218024	-2.872048026e-005	9.094012967e-006	3.231737537e-006	-1.029947043e-007	1.0
2	-47.11856842	0.0009522218024	-2.872048026e-005	-9.783444511e-006	-4.180509677e-006	3.457467074e-006	1.0
[LeftHandRing3]
1	-28.71741867	-0.002360836603	8.843826436e-006	-1.552055983e-005	-6.833655789e-006	2.238641173e-006	1.0
2	-28.71741867	-0.002360836603	8.843826436e-006	7.133467534e-006	-2.576729912e-006	-3.387930064e-006	1.0
[LeftHandRing4]
1	-24.54695129	0.002331606345	4.959414355e-007	1.373249006e-006	-2.752898354e-006	-2.041473635e-006	1.0
2	-24.54695129	0.002331606345	4.959414355e-007	1.823673415e-006	-4.673626677e-007	1.242696817e-005	1.0
[LeftHandPinky0]
1	-6.175186157	0.8125487566	-3.758023262	0	0	0	1.0
2	-6.175186157	0.8125487566	-3.758023262	0	0	0	1.0
[LeftHandPinky1]
1	-58.19955826	-0.001245321357	-6.914727419e-005	-5.885846832e-008	-9.932587091e-007	-1.112249629e-005	1.0
2	-58.19955826	-0.001245321357	-6.914727419e-005	-3.706346092e-007	-4.642572094e-006	-1.407927994e-005	1.0
[LeftHandPinky2]
1	-39.05273819	0.004963599145	-2.538270201e-005	-9.348535968e-006	9.369092368e-006	-1.073391741e-005	1.0
2	-39.05273819	0.004963599145	-2.538270201e-005	2.467268814e-006	7.159741926e-006	1.014196732e-005	1.0
[LeftHandPinky3]
1	-20.92480659	-0.004931366071	6.711302558e-005	1.174810768e-005	-1.842127631e-006	4.917023944e-006	1.0
2	-20.92480659	-0.004931366071	6.711302558e-005	1.933900785e-005	-4.295276995e-006	-1.298813095e-005	1.0
[LeftHandPinky4]
1	-21.05467796	-0.0008227663347	-9.761578258e-005	1.613276618e-005	-7.738655938e-009	1.355033419e-007	1.0
2	-21.05467796	-0.0008227663347	-9.761578258e-005	3.066652789e-005	3.398361628e-007	-1.42201452e-005	1.0
[RightUpLeg]
1	-88.96710205	-52.84283066	-41.06762314	3.136272669	26.78163528	11.35574245	1.0
2	-88.96710205	-52.84283066	-41.06762314	4.617753029	25.22130203	8.759890556	1.0
[RightLeg]
1	436.7594604	-8.881784197e-014	-1.598721155e-013	2.943458458e-005	-67.36183167	9.139346366e-005	1.0
2	436.7594604	-8.881784197e-014	-1.598721155e-013	4.361080209e-005	-60.23532104	-4.666679888e-005	1.0
[RightFoot]
1	453.1539612	-5.329070518e-014	-2.220446049e-013	12.44087029	-3.911918402	-8.533579826	1.0
2	453.1539612	-5.329070518e-014	-2.220446049e-013	11.76718521	-8.577618599	-7.749723434	1.0
[RightToeBase]
1	146.876709	-1.776356839e-014	-1.831867991e-014	2.426755145e-006	3.096367664e-006	8.078216553	1.0
2	146.876709	-1.776356839e-014	-1.831867991e-014	-7.528391507e-006	3.446474921e-006	7.221733093	1.0
[RightToeEnd]
1	70.3217926	1.776356839e-013	-1.776356839e-014	0	0	0	1.0
2	70.3217926	1.776356839e-013	-1.776356839e-014	0	0	0	1.0
[LeftUpLeg]
1	88.96710205	-52.84285736	-41.06717682	15.9477272	-9.602739334	-6.972921371	1.0
2	88.96710205	-52.84285736	-41.06717682	15.18709946	-6.120346069	-3.948624372	1.0
[LeftLeg]
1	-436.7596436	7.105427358e-014	-3.488831862e-005	-8.79189065e-006	0.9870443344	4.417026503e-005	1.0
2	-436.7596436	7.105427358e-014	-3.488831862e-005	2.959907761e-005	-1.235755801	1.542121754e-005	1.0
[LeftFoot]
1	-453.1542358	-7.105427358e-014	3.711377576e-005	4.225973606	-0.08730843663	1.9347018	1.0
2	-453.1542358	-7.105427358e-014	3.711377576e-005	5.571340084	1.456938744	-1.618020296	1.0
[LeftToeBase]
1	-146.8766174	-1.302345117e-005	-3.889528671e-005	-4.898172119e-005	-6.429170298e-006	-1.949667096	1.0
2	-146.8766174	-1.302345117e-005	-3.889528671e-005	1.559343036e-005	-7.439081401e-006	1.434855103	1.0
[LeftToeEnd]
1	-70.32167053	7.620360702e-005	8.329622506e-005	0	0	0	1.0
2	-70.32167053	7.620360702e-005	8.329622506e-005	0	0	0	1.0
[EndOfFile]
